<svg width="48" height="48" viewBox="0 0 48 48" fill="none" xmlns="http://www.w3.org/2000/svg">
<path d="M23.9972 35.0957C26.523 35.0957 28.6708 34.2117 30.4408 32.4437C32.2107 30.6756 33.0957 28.5287 33.0957 26.0029C33.0957 23.4771 32.2116 21.3292 30.4436 19.5593C28.6755 17.7894 26.5286 16.9044 24.0028 16.9044C21.477 16.9044 19.3292 17.7884 17.5593 19.5565C15.7893 21.3245 14.9044 23.4715 14.9044 25.9973C14.9044 28.523 15.7884 30.6709 17.5564 32.4408C19.3245 34.2107 21.4714 35.0957 23.9972 35.0957ZM24 30.7849C22.6558 30.7849 21.5223 30.3234 20.5995 29.4006C19.6766 28.4778 19.2152 27.3443 19.2152 26.0001C19.2152 24.6559 19.6766 23.5223 20.5995 22.5995C21.5223 21.6767 22.6558 21.2153 24 21.2153C25.3442 21.2153 26.4777 21.6767 27.4006 22.5995C28.3234 23.5223 28.7848 24.6559 28.7848 26.0001C28.7848 27.3443 28.3234 28.4778 27.4006 29.4006C26.4777 30.3234 25.3442 30.7849 24 30.7849ZM8.14351 42.4066C6.88407 42.4066 5.81087 41.9631 4.92391 41.0762C4.03697 40.1892 3.59351 39.116 3.59351 37.8566V14.1436C3.59351 12.8841 4.03701 11.8109 4.92401 10.924C5.81094 10.037 6.88412 9.59351 8.14356 9.59351H14.0849L16.6088 6.97721C17.0233 6.54534 17.5167 6.20676 18.0892 5.96146C18.6617 5.71616 19.2551 5.59351 19.8696 5.59351H28.1305C28.745 5.59351 29.3384 5.71616 29.9109 5.96146C30.4834 6.20676 30.9769 6.54534 31.3914 6.97721L33.9153 9.59351H39.8565C41.1159 9.59351 42.1891 10.037 43.0761 10.924C43.9631 11.8109 44.4066 12.8841 44.4066 14.1436V37.8566C44.4066 39.116 43.9631 40.1892 43.0761 41.0762C42.1891 41.9631 41.1159 42.4066 39.8565 42.4066H8.14351ZM8.14351 37.8566H39.8565V14.1436H31.9359L28.1544 10.1436H19.8815L16.0283 14.1436H8.14351V37.8566Z" fill="#ffffff"/>
</svg>
